<svg width="1982" height="1983" viewBox="0 0 1982 1983" fill="none" xmlns="http://www.w3.org/2000/svg">
<path d="M1207.41 1809.48L1211.94 1815.27C1216.8 1862.09 1222.91 1907.4 1236.48 1952.65C1239.3 1962.06 1242.27 1974.1 1245.93 1983H1036.54C1041.77 1976.46 1049.82 1968.98 1055.92 1962.84L1089.69 1928.78C1128.73 1889.37 1168.94 1849.35 1207.41 1809.48Z" fill="#F2AAC6"/>
<path d="M0 0H1982V2.69881L881.1 2.79691L496.125 2.79234L368.263 2.79193C346.585 2.79037 321.675 3.37639 300.17 2.58632L300.178 75.5988L197.076 75.5717C197.124 179.017 195.928 284.712 197.186 387.9L102.594 387.926L102.601 75.5883L1.20038 75.6059L1.26888 1983H0V0Z" fill="#282825"/>
<path d="M1198.4 210.744C1210.54 115.331 1290.37 65.2281 1382.76 76.7439C1476.26 88.3963 1528.69 168.827 1516.02 259.332C1512.45 284.873 1505.04 304.056 1491.04 325.563L1394.88 325.526C1381.69 346.459 1368.6 372.344 1355.47 392.096C1326.07 391.062 1309.85 388.354 1283.14 376.881C1277.88 371.779 1254.88 334.866 1248.15 325.563L1222.9 325.536C1214.18 325.606 1205.45 325.575 1196.72 325.444C1196.73 313.948 1195.36 264.905 1197.35 256.99L1198.44 257.288C1198.1 239.128 1197.18 229.596 1198.4 210.744Z" fill="#282825"/>
<path d="M1198.4 210.745C1210.54 115.332 1290.37 65.2287 1382.76 76.7443C1476.26 88.3967 1528.69 168.828 1516.02 259.332C1512.45 284.874 1505.04 304.057 1491.04 325.564C1494 325.537 1498.35 325.141 1500.79 326.351C1499.92 330.055 1477.24 364.736 1473.79 370.191L1413.18 466.298C1401.92 484.109 1389.42 502.979 1378.86 521.067C1392.32 542.065 1406.47 563.413 1420.58 583.972C1449.79 626.525 1477.35 670.908 1507.03 713.076L1397.55 713.183C1388.86 702.343 1377.15 683.664 1369.2 671.713L1317.91 594.707C1302.5 620.568 1287.23 646.518 1272.1 672.557C1266.03 682.979 1254.65 703.845 1247.96 713.126L1141.1 713.151L1265.35 515.935C1236.44 473.727 1208.78 429.717 1179.64 387.822C1177.31 383.269 1168.2 370.193 1165.03 365.544C1156.24 352.662 1147.3 337.889 1138 325.571L1195.79 325.532L1196.72 325.446C1205.45 325.576 1214.18 325.607 1222.9 325.537C1208.79 304.251 1201.76 282.49 1198.44 257.288L1197.35 256.991H1197.35L1198.44 257.288C1198.1 239.129 1197.18 229.597 1198.4 210.745ZM1283.14 376.882C1292.77 394.798 1306.52 412.013 1317.35 429.342C1320 433.591 1323.2 438.383 1326.14 442.394C1336.14 425.76 1345.92 408.993 1355.47 392.097C1326.07 391.063 1309.85 388.355 1283.14 376.882ZM1419.45 210.93C1413.22 176.535 1386.99 155.032 1351.46 157.201C1311.18 162.851 1295.93 189.17 1293.3 227.915C1290.29 272.11 1314.76 315.72 1364.68 310.129C1414.02 300.264 1427.7 256.438 1419.45 210.93Z" fill="#FEFBEE"/>
<path d="M626.479 111.813C686.984 59.0535 797.287 62.3527 850.445 124.458C883.893 163.537 888.498 206.96 884.522 256.197L670.577 256.184C671.043 261.548 671.945 266.865 673.277 272.081C682.328 306.843 715.054 322.011 748.421 312.753C763.299 308.625 771.545 298.234 778.527 285.459L879.109 285.479C877.353 292.313 875.053 298.997 872.232 305.465C856.333 342.844 829.077 366.756 791.923 381.781C791.985 368.75 792.803 341.954 791.502 329.742L697.117 329.716L697.14 389.091C666.111 382.44 636.999 368.201 615.66 344.24C602.173 329.095 588.968 307.529 584.508 287.599C582.438 294.584 580.247 300.466 577.367 307.129C526.052 425.869 334.161 419.008 292.556 295.79C277.852 252.243 278.952 198.127 298.777 156.446C314.517 123.255 342.735 97.6281 377.283 85.1445C418.434 70.6889 472.228 71.4595 511.724 90.6836C549.435 109.039 571.294 137.093 584.898 176.132C593.142 151.694 606.88 128.904 626.479 111.813ZM376.217 256.197C380.554 283.405 389.705 306.14 420.089 313.631C440.737 318.721 465.406 313.662 478.411 295.393C480.664 292.271 482.623 288.948 484.262 285.464L555.29 285.473L583.75 285.48C580.839 274.977 579.398 266.98 577.782 256.159L376.217 256.197ZM789.337 204.071C787.55 163.516 758.527 148.494 722.026 151.272C692.81 156.451 675.357 174.37 671.252 204.089L740.224 204.066L789.337 204.071ZM495.381 204.072C492.456 165.27 465.86 147.82 429.34 151.207L427.97 151.343C395.813 156.543 383.779 174.245 376.731 204.014L445.878 204.066L495.381 204.072Z" fill="#282825"/>
<path d="M1033.25 918.354C1101.75 991.374 1170.72 1068.98 1238.35 1143.11L1539.47 1473.26C1530.89 1482.8 1519.3 1493.94 1510.14 1503.25C1523.27 1603.74 1555.99 1689.65 1619.29 1769.81C1694.5 1865.19 1800.52 1931.45 1919.21 1957.25C1938.82 1961.53 1962.13 1964.42 1982 1966.77V1983H940.711L806.217 1835.62C783.74 1810.99 759.051 1782.68 736.035 1758.94C807.624 1684.15 884.023 1609 956.972 1535.07C950.477 1529.1 940.448 1517.44 934.209 1510.58L892.606 1464.84L766.787 1326.98C746.839 1305.12 721.147 1275.18 700.58 1254.86L918.664 1034.08C955.953 996.322 995.28 955.042 1033.25 918.354ZM1489.9 996.225C1517.53 1024.51 1547.59 1059.1 1574.53 1088.65L1740.51 1270.47C1723.66 1285.16 1696.29 1314.64 1679.82 1331.31L1562.93 1449.84C1556.43 1445.66 1531.44 1415.99 1524.51 1408.53C1453.2 1331.53 1383.7 1252.36 1312 1175.78L1428.38 1057.88C1445.4 1040.66 1472.65 1011.25 1489.9 996.225Z" fill="#282825"/>
<path d="M657.693 404.702L659.858 405.185C659.914 415.592 660.618 477.863 659.403 483.219C658.019 487.039 658.603 513.83 658.608 519.959L658.721 658.607C658.726 666.034 659.126 708.568 658.145 713.074C657.27 707.473 657.624 688.992 657.633 682.435L657.679 623.179L657.693 404.702Z" fill="#F9BED0"/>
<path d="M410.492 413.756C464.784 388.091 527.682 398.426 563.428 448.525L563.423 404.759L657.693 404.701L659.858 405.185C659.914 415.592 660.618 477.862 659.403 483.219C658.019 487.039 658.603 513.828 658.608 519.958L658.721 658.606C658.726 666.033 659.126 708.568 658.145 713.073C626.861 713.487 594.782 713.135 563.432 713.153L563.452 669.824C535.99 707.798 494.768 722.955 448.692 716.252C414.86 711.378 384.446 693.005 364.39 665.326C310.833 592.754 322.475 455.365 410.492 413.756ZM508.346 634.029C591.075 618.567 579.059 471.928 485.973 483.413C438.915 492.071 422.026 535.56 430.329 579.123C433.759 597.78 444.538 614.278 460.248 624.911C474.949 634.764 491.218 636.572 508.346 634.029Z" fill="#FEFBEE"/>
<path d="M985.423 401.264C1032.08 395.563 1086.89 413.736 1117.73 449.969C1151.43 489.536 1155.57 532.154 1151.95 581.896L937.82 581.903C940.71 603.57 946.592 621.696 966.942 633.307C981.124 641.231 997.856 643.222 1013.5 638.846C1030.17 634.109 1037.82 625.33 1045.81 610.997L1146.53 611.016C1141.44 630.204 1132.42 648.125 1120.05 663.648C1068.14 728.581 961.964 734.967 898.154 684.209C847.785 643.797 834.473 571.469 849.714 511.135C866.981 442.782 918.048 407.796 985.423 401.264ZM1056.79 528.902C1053.83 490.816 1027.84 473.953 991.784 476.708C959.113 481.43 945.329 497.674 938.366 529.051L1006.95 529.089C1022.61 529.103 1041.37 529.602 1056.79 528.902Z" fill="#FEFBEE"/>
<path d="M984.222 120.205C986.313 117.588 988.443 114.999 990.603 112.441C1009.14 90.6964 1038.82 78.2627 1066.96 76.5885C1146.34 71.8651 1190.86 120.3 1195.86 196.523C1196.3 200.22 1196.35 209.028 1198.01 210.705L1198.4 210.744C1197.18 229.596 1198.1 239.128 1198.44 257.287L1197.35 256.99C1195.36 264.905 1196.73 313.948 1196.72 325.444L1195.78 325.532L1138 325.569C1147.3 337.887 1156.24 352.661 1165.03 365.543C1168.2 370.192 1177.31 383.268 1179.64 387.822C1154.41 388.345 1127.57 387.911 1102.2 387.941L1102.22 271.845C1102.26 254.907 1103.45 214.714 1100.31 199.737C1098.14 189.015 1092.98 179.124 1085.44 171.192C1074.7 160.044 1059.44 155.205 1044.34 155.3C974.917 155.739 984.212 222.213 984.222 268.795L984.29 387.899L889.75 387.93L889.748 79.5691L984.28 79.5872L984.222 120.205Z" fill="#282825"/>
<path d="M187.883 623.889C194.422 607.154 204.182 571.647 209.541 553.623L238.59 458.457C243.326 442.532 249.214 419.994 255.271 404.754L355.305 404.766L331.202 473.26C301.863 552.475 274.817 633.635 245.794 713.156L129.697 713.171C124.162 700.681 117.688 680.756 113.07 667.527L88.8308 599.206C66.2044 535.495 41.2983 468.597 19.9355 404.768L120.948 404.767L159.172 530.4C167.413 557.929 178.306 597.089 187.883 623.889Z" fill="#FEFBEE"/>
<path d="M697.118 329.715L791.503 329.742C789.429 352.191 792.131 381.675 791.801 404.761L853.616 404.765L853.648 483.231L791.793 483.214L791.735 571.758C791.706 637.053 788.525 633.722 854.052 633.064L854.051 713.116C810.497 713.226 756.361 718.505 723.316 685.479C692.12 654.3 697.075 602.95 697.092 562.098L697.144 483.23L659.404 483.219C660.618 477.862 659.915 415.591 659.859 405.185C666.011 404.278 689.537 404.726 697.128 404.748L697.141 389.091L697.118 329.715Z" fill="#FEFBEE"/>
</svg>
